# xmcd
#
# Track frame offsets: 
#        150
#        19932
#        42082
#        62942
#        87557
#        106832
#        125820
#        143150
#        168007
#        186445
#
# Disc length: 2796 seconds
#
# Revision: 0
# Processed by: cddbd v1.5.2PL0 Copyright (c) Steve Scherf et al.
# Submitted via: ExactAudioCopy v1.0b1
#
DISCID=8b0aea0a
DTITLE=Shari Addison - Shari Addison
DYEAR=2009
DGENRE=Gospel
TTITLE0=Whateva
TTITLE1=I Praise You
TTITLE2=No Battle, No Blessing
TTITLE3=One More Sunny Day
TTITLE4=Please Make Me Better
TTITLE5=You Know My Heart
TTITLE6=Can't Make It Without Him
TTITLE7=He Does All Things Well
TTITLE8=You Can Rise
TTITLE9=It's Your Time
EXTD=
EXTT0=
EXTT1=
EXTT2=
EXTT3=
EXTT4=
EXTT5=
EXTT6=
EXTT7=
EXTT8=
EXTT9=
PLAYORDER=
